<svg xmlns="http://www.w3.org/2000/svg" width="512" height="512" viewBox="0 0 512 512">
  <defs>
    <radialGradient id="g" cx="62%" cy="48%" r="72%">
      <stop offset="0" stop-color="#f8d678"/>
      <stop offset=".36" stop-color="#3a2a12"/>
      <stop offset="1" stop-color="#020202"/>
    </radialGradient>
    <linearGradient id="gold" x1="0" x2="1">
      <stop offset="0" stop-color="#98702b"/>
      <stop offset=".48" stop-color="#ffe28a"/>
      <stop offset="1" stop-color="#b9882c"/>
    </linearGradient>
  </defs>
  <rect width="512" height="512" rx="112" fill="#020202"/>
  <rect width="512" height="512" rx="112" fill="url(#g)" opacity=".78"/>
  <path d="M104 191h82l27-38h94l27 38h74a40 40 0 0 1 40 40v123a40 40 0 0 1-40 40H104a40 40 0 0 1-40-40V231a40 40 0 0 1 40-40Z" fill="none" stroke="url(#gold)" stroke-width="18" stroke-linejoin="round"/>
  <circle cx="264" cy="299" r="70" fill="none" stroke="#f9dfa0" stroke-width="18"/>
  <path d="M184 329 237 209l37 125 63-125" fill="none" stroke="#fffaf0" stroke-width="24" stroke-linecap="round" stroke-linejoin="round"/>
  <text x="256" y="438" text-anchor="middle" fill="#f4d17b" font-family="Arial, sans-serif" font-size="45" font-weight="700" letter-spacing="14">STUDIO</text>
</svg>
