<svg xmlns="http://www.w3.org/2000/svg" width="192" height="192" viewBox="0 0 192 192">
  <defs>
    <radialGradient id="g" cx="62%" cy="48%" r="72%">
      <stop offset="0" stop-color="#f8d678"/>
      <stop offset=".36" stop-color="#3a2a12"/>
      <stop offset="1" stop-color="#020202"/>
    </radialGradient>
    <linearGradient id="gold" x1="0" x2="1">
      <stop offset="0" stop-color="#98702b"/>
      <stop offset=".48" stop-color="#ffe28a"/>
      <stop offset="1" stop-color="#b9882c"/>
    </linearGradient>
  </defs>
  <rect width="192" height="192" rx="42" fill="#020202"/>
  <rect width="192" height="192" rx="42" fill="url(#g)" opacity=".78"/>
  <path d="M39 72h31l10-14h35l10 14h28a15 15 0 0 1 15 15v46a15 15 0 0 1-15 15H39a15 15 0 0 1-15-15V87a15 15 0 0 1 15-15Z" fill="none" stroke="url(#gold)" stroke-width="7" stroke-linejoin="round"/>
  <circle cx="99" cy="112" r="26" fill="none" stroke="#f9dfa0" stroke-width="7"/>
  <path d="M69 123 89 78l14 47 24-47" fill="none" stroke="#fffaf0" stroke-width="9" stroke-linecap="round" stroke-linejoin="round"/>
  <text x="96" y="164" text-anchor="middle" fill="#f4d17b" font-family="Arial, sans-serif" font-size="17" font-weight="700" letter-spacing="5">STUDIO</text>
</svg>
